<svg opacity="0.17" xmlns="http://www.w3.org/2000/svg" version="1.1" xmlns:xlink="http://www.w3.org/1999/xlink" width="100%" height="100%">
    <defs>
        <pattern x="0" y="0" width="1" height="1" patternUnits="userSpaceOnUse" id="Pattern695Layer1">
            <g id="PatternRootContent1">
                <g id="Pattern695Layer1background">
                    <rect width="1" height="1" id="Pattern695Background1" fill="#0e6b67"></rect>
                </g>
            </g>
        </pattern>
        <pattern x="0" y="0" width="87.5" height="150" patternUnits="userSpaceOnUse" id="Pattern695Layer2" patternTransform="matrix(0.77,0,0,0.77,0,0)" viewBox="0 0 87.5 150" preserveAspectRatio="xMidYMid slice">
            <g id="PatternRootContent2" transform="scale(1.5625) rotate(0)">
                <g id="Pattern695Layer2Element2">
                    <use xlink:href="#Pattern695Element2" x="15.823081970214844" y="-58.79423141479492" transform="translate(56, -24) scale(1) translate(-56, 24) rotate(0, 56, -24)">
                    </use><use xlink:href="#Pattern695Element2" x="-40.176918029785156" y="-58.79423141479492" transform="translate(0, -24) scale(1) translate(0, 24) rotate(0, 0, -24)">
                </use><use xlink:href="#Pattern695Element2" x="-12.176918029785156" y="-10.794231414794922" transform="translate(28, 24) scale(1) translate(-28, -24) rotate(0, 28, 24)">
                </use><use xlink:href="#Pattern695Element2" x="-68.17691802978516" y="-10.794231414794922" transform="translate(-28, 24) scale(1) translate(28, -24) rotate(0, -28, 24)">
                </use><use xlink:href="#Pattern695Element2" x="43.823081970214844" y="-10.794231414794922" transform="translate(84, 24) scale(1) translate(-84, -24) rotate(0, 84, 24)">
                </use><use xlink:href="#Pattern695Element2" x="15.823081970214844" y="37.20576858520508" transform="translate(56, 72) scale(1) translate(-56, -72) rotate(0, 56, 72)">
                </use><use xlink:href="#Pattern695Element2" x="-40.176918029785156" y="37.20576858520508" transform="translate(0, 72) scale(1) translate(0, -72) rotate(0, 0, 72)">
                </use><use xlink:href="#Pattern695Element2" x="-12.176918029785156" y="85.20576858520508" transform="translate(28, 120) scale(1) translate(-28, -120) rotate(0, 28, 120)">
                </use><use xlink:href="#Pattern695Element2" x="-12.176918029785156" y="85.20576858520508" transform="translate(28, 120) scale(1) translate(-28, -120) rotate(0, 28, 120)">
                </use>
                </g>
            </g>
        </pattern>
        <symbol id="Pattern695Element2">
            <g class="fill_color_0" fill="black">
                <path d="M30.177,35.999961853027344l4,0L34.177,11.999959945678711l-4,0l0,24Zm8,8l4,0L42.177,3.999959945678711l-4,0l0,40ZM22.177,27.99995994567871l4,0l0,-8L22.177,19.99995994567871l0,8Zm24,8l4,0L50.177,11.999959945678711l-4,0l0,24Zm8,-16l0,8l4,0l0,-8l-4,0Z" transform="matrix(1,0,0,1,0,0)">
                </path>
                <path d="M48.641,33.33970642089844l-2,3.464L67.426,48.803810119628906l2,-3.464l-20.785,-12Zm-10.928,2.928l-2,3.464L70.354,59.73201370239258l2,-3.464l-34.641,-20ZM59.569,30.411502838134766l-2,3.464l6.928,4L66.497,34.411502838134766l-6.928,-4Zm-18.928,16.785l-2,3.464L59.426,62.66021728515625l2,-3.464l-20.785,-12Zm9.856,14.928l-6.928,-4l-2,3.464l6.928,4l2,-3.464Z" transform="matrix(1,0,0,1,0,0)">
                </path>
                <path d="M41.713,50.66021728515625l-2,-3.464L18.928,59.19611740112305l2,3.464l20.785,-12Zm2.928,-10.928l-2,-3.464L8,56.267913818359375l2,3.464l34.641,-20ZM38.785,61.58842086791992l-2,-3.464l-6.928,4L31.856,65.58841705322266l6.929,-4Zm-5.072,-24.785l-2,-3.464L10.928,45.3397102355957l2,3.464l20.785,-12Zm-17.856,1.072l6.928,-4l-2,-3.464l-6.928,4l2,3.464Z" transform="matrix(1,0,0,1,0,0)">
                </path>
            </g>
        </symbol>
    </defs>
    <rect width="100%" height="100%" id="Pattern695RctLayer1" fill="url(#Pattern695Layer1)">
    </rect>
    <rect width="100%" height="100%" id="Pattern695RctLayer2" fill="url(#Pattern695Layer2)">
    </rect>
</svg>